<svg id="图层_1" data-name="图层 1" xmlns="http://www.w3.org/2000/svg" viewBox="0 0 166.61 186.55"><defs><style>.cls-1{fill:#7e49fc;}.cls-2{fill:#06f;}</style></defs><path class="cls-1" d="M211.66,101.9,251,45.22l19.8,28.72-20.08,28.72H212.06A.49.49,0,0,1,211.66,101.9Z" transform="translate(-187.51 -45.22)"/><path class="cls-1" d="M330,101.9,290.62,45.22l-19.8,28.72,20.08,28.72h38.68A.49.49,0,0,0,330,101.9Z" transform="translate(-187.51 -45.22)"/><path class="cls-2" d="M330.67,110.1a59.85,59.85,0,0,1-119.7,0H249a21.79,21.79,0,0,0,43.58,0Z" transform="translate(-187.51 -45.22)"/><path d="M198.6,231.31H187.78V204.23H198.6Z" transform="translate(-187.51 -45.22)"/><path d="M193.19,202.14h0a5.68,5.68,0,0,1-5.68-5.68h0a5.69,5.69,0,0,1,5.68-5.68h0a5.69,5.69,0,0,1,5.69,5.68h0A5.68,5.68,0,0,1,193.19,202.14Z" transform="translate(-187.51 -45.22)"/><path d="M240.6,231.31H204.17L222.73,204h-17v-8.57h34.9l-18.51,27.29H240.6Z" transform="translate(-187.51 -45.22)"/><path d="M283.7,215.23a16.59,16.59,0,0,1-1.72,7.86,13.78,13.78,0,0,1-4.56,5.13,19.59,19.59,0,0,1-6.11,2.72,26.13,26.13,0,0,1-15.4-.72,15.77,15.77,0,0,1-7.21-5.28,15.39,15.39,0,0,1-2.9-9.71V195.42h10.79v17a14.46,14.46,0,0,0,1,5.87,7.15,7.15,0,0,0,2.84,3.39,8.44,8.44,0,0,0,4.32,1.07A8.29,8.29,0,0,0,269,221.7a7.1,7.1,0,0,0,2.86-3.36,14.56,14.56,0,0,0,1-5.86V195.42H283.7Z" transform="translate(-187.51 -45.22)"/><path d="M333.92,231.31H323.1V210.52l-9.76,12h-.85l-9.79-12v20.79H292.19V195.42H302l11,13.47,11.08-13.47h9.81Z" transform="translate(-187.51 -45.22)"/><path d="M353.86,231.31H343V204.23h10.83Z" transform="translate(-187.51 -45.22)"/><path d="M348.45,202.14h0a5.68,5.68,0,0,1-5.69-5.68h0a5.69,5.69,0,0,1,5.69-5.68h0a5.69,5.69,0,0,1,5.68,5.68h0A5.68,5.68,0,0,1,348.45,202.14Z" transform="translate(-187.51 -45.22)"/></svg>